<svg height="507pt" viewBox="0 -35 507.48875 507" width="507pt" xmlns="http://www.w3.org/2000/svg"><path d="m399.476562 10.792969v30.175781h-348.199218c-5.824219 0-10.550782 4.746094-10.550782 10.578125v345.378906h-26.25c-7.988281 0-14.476562-6.488281-14.476562-14.5v-360.09375c0-12.195312 9.867188-22.085937 22.066406-22.085937h366.859375c1.082031 0 2.117188.160156 3.125.46875 4.300781 1.316406 7.425781 5.332031 7.425781 10.078125zm0 0" fill="#fdb913"/><path d="m51.289062 26.890625c-9.828124 0-18.332031 5.78125-22.28125 14.101563-1.21875 2.558593-1.996093 5.351562-2.277343 8.292968-.070313.753906-.09375 1.503906-.09375 2.257813v345.386719h14.097656v-345.386719c0-.777344.09375-1.527344.261719-2.257813 1.011718-4.746094 5.238281-8.292968 10.292968-8.292968h348.183594v-14.101563zm0 0" fill="#f4821f"/><path d="m441.941406 423.171875c-1.761718 7.992187-8.25 14.476563-16.261718 14.476563h-370.429688c-8.011719 0-14.523438-6.484376-14.523438-14.476563v-371.625c0-5.832031 4.726563-10.578125 10.550782-10.578125h378.398437c1.078125 0 2.113281.191406 3.101563.496094 4.324218 1.292968 7.449218 5.308594 7.449218 10.082031zm0 0" fill="#fdb913"/><path d="m416.679688 109.09375v301.90625c0 1.738281-1.410157 3.148438-3.148438 3.148438h-346.15625c-1.738281 0-3.152344-1.410157-3.152344-3.148438v-301.90625c0-1.738281 1.414063-3.148438 3.152344-3.148438h346.15625c1.738281 0 3.148438 1.410157 3.148438 3.148438zm0 0" fill="#ffeca1"/><path d="m81.246094 66.378906c0 3.863282-3.132813 6.996094-6.996094 6.996094s-6.996094-3.132812-6.996094-6.996094c0-3.867187 3.132813-7 6.996094-7s6.996094 3.132813 6.996094 7zm0 0" fill="#fff"/><path d="m108.71875 66.378906c0 3.863282-3.132812 6.996094-6.996094 6.996094-3.867187 0-7-3.132812-7-6.996094 0-3.867187 3.132813-7 7-7 3.863282 0 6.996094 3.132813 6.996094 7zm0 0" fill="#fff"/><path d="m136.1875 66.378906c0 3.863282-3.132812 6.996094-6.996094 6.996094-3.863281 0-6.996094-3.132812-6.996094-6.996094 0-3.867187 3.132813-7 6.996094-7 3.863282 0 6.996094 3.132813 6.996094 7zm0 0" fill="#fff"/><path d="m274.316406 58.808594h135.453125v14.101562h-135.453125zm0 0" fill="#fff"/><g fill="#fdb913"><path d="m102.210938 343.160156h189.207031v14.097656h-189.207031zm0 0"/><path d="m182.222656 372.925781h191.394532v14.097657h-191.394532zm0 0"/><path d="m313.175781 342.636719h61.144531v14.101562h-61.144531zm0 0"/><path d="m102.445312 373.1875h61.144532v14.101562h-61.144532zm0 0"/><path d="m254.546875 302.523438h-146.550781c-3.011719 0-5.449219-2.4375-5.449219-5.449219v-148.902344c0-3.007813 2.4375-5.445313 5.449219-5.445313h146.550781c3.011719 0 5.449219 2.4375 5.449219 5.445313v148.902344c0 3.011719-2.4375 5.449219-5.449219 5.449219zm0 0"/><path d="m505.015625 36.859375c-7.800781 3.6875-12.121094 8.015625-15.8125 15.8125-1.535156 3.246094-6.230469 3.246094-7.765625 0-3.6875-7.800781-8.011719-12.125-15.8125-15.8125-3.242188-1.53125-3.242188-6.230469 0-7.765625 7.800781-3.6875 12.125-8.011719 15.8125-15.8125 1.535156-3.242188 6.230469-3.242188 7.765625 0 3.691406 7.800781 8.011719 12.125 15.8125 15.8125 3.246094 1.535156 3.246094 6.234375 0 7.765625zm0 0"/></g><path d="m504.335938 143.945312-142.339844 142.339844-32.3125 5.402344c.019531-.113281.019531-.210938.019531-.324219 0-7.476562-5.988281-13.5625-13.441406-13.679687l5.851562-31.277344 142.339844-142.339844c4.207031-4.207031 11.046875-4.207031 15.253906 0l24.628907 24.628906c4.203124 4.203126 4.203124 11.042969 0 15.25zm0 0" fill="#00badb"/><path d="m331.875 236.644531 39.878906 39.878907-9.96875 9.96875-39.878906-39.878907zm0 0" fill="#fff"/><path d="m329.703125 291.363281c0 .113281 0 .210938-.019531.324219l-8.25 1.390625c-4.042969.65625-7.523438-2.867187-6.769532-6.910156l1.597657-8.484375c7.453125.117187 13.441406 6.203125 13.441406 13.679687zm0 0" fill="#fff"/><path d="m316.261719 277.683594 5.851562-31.277344 94.566407-94.5625v-19.929688l-104.53125 104.527344-3.101563 3.078125-.800781 4.300781-5.851563 31.277344-1.597656 8.460938c-1.078125 5.898437.472656 11.890625 4.277344 16.472656 3.808593 4.585938 9.421875 7.214844 15.371093 7.214844 1.078126 0 2.183594-.070313 3.242188-.257813l8.320312-1.386719 32.3125-5.402343 4.441407-.753907 47.914062-47.914062v-19.933594l-54.683593 54.6875-32.3125 5.402344-8.25 1.390625c-.328126.046875-.65625.066406-.984376.066406-3.601562 0-6.464843-3.265625-5.785156-6.976562zm0 0" fill="#fdb913"/><path d="m440.480469 108.101562.074219 19.867188-23.875 23.875v-19.929688zm0 0" fill="#f4821f"/><path d="m440.941406 207.328125.089844 19.8125-24.351562 24.390625v-19.933594zm0 0" fill="#f4821f"/></svg>