<svg id="Capa_1" enable-background="new 0 0 512 512" height="512" viewBox="0 0 512 512" width="512" xmlns="http://www.w3.org/2000/svg" xmlns:xlink="http://www.w3.org/1999/xlink"><linearGradient id="SVGID_1_" gradientUnits="userSpaceOnUse" x1="211" x2="211" y1="512" y2="0"><stop offset="0" stop-color="#fd5900"/><stop offset="1" stop-color="#ffde00"/></linearGradient><linearGradient id="SVGID_2_" gradientUnits="userSpaceOnUse" x1="286" x2="286" y1="451" y2="0"><stop offset="0" stop-color="#ffe59a"/><stop offset="1" stop-color="#ffffd5"/></linearGradient><g><g><g><path d="m271 0h-225c-8.284 0-15 6.716-15 15v482c0 8.284 6.716 15 15 15h330c8.284 0 15-6.716 15-15v-376z" fill="url(#SVGID_1_)"/></g></g><g><g><path d="m166 421h-59.998c-8.284 0-15 6.716-15 15s6.716 15 15 15h59.998c8.284 0 15-6.716 15-15s-6.716-15-15-15zm-60-300h59.998c8.284 0 15-6.716 15-15s-6.716-15-15-15h-59.998c-8.284 0-15 6.716-15 15s6.716 15 15 15zm0 60h209.998c8.284 0 15-6.716 15-15s-6.716-15-15-15h-209.998c-8.284 0-15 6.716-15 15s6.716 15 15 15zm0 60h209.998c8.284 0 15-6.716 15-15s-6.716-15-15-15h-209.998c-8.284 0-15 6.716-15 15s6.716 15 15 15zm370.606-13.18-42.427-42.426c-5.857-5.858-15.355-5.858-21.213 0l-176.36 176.36c-1.647 1.646-2.887 3.654-3.624 5.863l-21.213 63.64c-1.796 5.39-.394 11.333 3.624 15.35 4.043 4.043 9.995 5.409 15.35 3.624l63.639-21.213c2.209-.737 4.217-1.977 5.863-3.624l176.36-176.36c2.813-2.813 4.394-6.628 4.394-10.606.001-3.98-1.579-7.795-4.393-10.608zm-190.606-106.82h105v-15c0-3.95-1.558-7.74-4.335-10.548l-90-91c-2.817-2.849-6.658-4.452-10.665-4.452h-15v106c0 8.284 6.716 15 15 15z" fill="url(#SVGID_2_)"/></g></g></g></svg>