<svg id="Layer_1" enable-background="new 0 0 512 512" viewBox="0 0 512 512" xmlns="http://www.w3.org/2000/svg"><g id="Layer_2_1_"><g id="Layer_1-2"><g id="PDF"><g id="File"><path d="m299.5 3.9h-188.1c-18.2.1-32.9 14.8-33 33v438.2c0 18.2 14.8 32.9 32.9 32.9h330.4c18.2 0 32.9-14.8 33-32.9l-.9-325.5z"/><g fill="#ff7f18"><path d="m441.7 512h-330.3c-20.4 0-36.9-16.5-36.9-36.9v-438.2c0-20.4 16.5-36.9 36.9-36.9h189.6l176.8 147.8.9 327.3c-.1 20.4-16.6 36.9-37 36.9zm-330.3-504.1c-16 0-29 13-29 29v438.2c0 16 13 29 29 29h330.4c16 0 29-13 29-29l-.9-323.6-171.8-143.6z"/><path d="m299.5 3.9-.5 142.3s.5 3.4 3.5 3.4h171.3z"/></g></g><path d="m47 246.9h332c7.5 0 13.6 6.1 13.6 13.6v148c0 7.5-6.1 13.6-13.6 13.6h-332c-7.5 0-13.6-6.1-13.6-13.6v-148c0-7.6 6.1-13.6 13.6-13.6z" fill="#ff7f18"/><g fill="#0c0c0c"><path d="m107.4 298.5h37.9c8.3 0 14.4 2 18.5 5.9s6.2 9.5 6.2 16.8c0 7.4-2.2 13.3-6.7 17.5s-11.3 6.3-20.5 6.3h-12.4v27.4h-22.9v-73.9zm22.9 31.4h5.6c4.4 0 7.5-.8 9.3-2.3 1.7-1.4 2.7-3.6 2.7-5.9 0-2.2-.8-4.3-2.3-5.9s-4.4-2.4-8.7-2.4h-6.5z"/><path d="m182.2 298.5h33.9c6.7 0 12.1.9 16.2 2.7 4 1.7 7.5 4.4 10.2 7.8 2.7 3.5 4.7 7.5 5.8 11.8 1.2 4.7 1.8 9.5 1.8 14.3 0 7.9-.9 14-2.7 18.3-1.7 4.1-4.2 7.9-7.5 10.9-2.9 2.8-6.4 4.8-10.3 5.9-4.4 1.3-9 1.9-13.6 2h-33.8zm22.8 16.7v40.3h5.6c4.8 0 8.1-.5 10.2-1.6 2.2-1.2 3.8-3.2 4.7-5.5 1.1-2.6 1.7-6.9 1.7-12.8 0-7.8-1.3-13.2-3.8-16-2.5-2.9-6.8-4.3-12.7-4.3z"/><path d="m262.2 298.5h56.3v15.8h-33.5v12.9h28.6v14.9h-28.6v30.1h-22.9v-73.7z"/></g></g></g></g></svg>