<svg id="Layer_1" enable-background="new 0 0 70 70" viewBox="0 0 70 70" xmlns="http://www.w3.org/2000/svg"><g><path d="m56.4 26.6v35.2c0 2.4-1.9 4.3-4.3 4.3h-43.1c-2.4 0-4.3-1.9-4.3-4.3v-35.2z" fill="#ffe0b2"/><path d="m56.4 62.1c-.1 2.2-2 4-4.3 4h-43.1c-2.4 0-4.3-1.9-4.3-4.3v-35.2h4.5v31.2c0 2.4 1.9 4.3 4.3 4.3z" fill="#e8bd89"/><path d="m50.7 62.1h-40.2c-1 0-1.7-.8-1.7-1.7v-27.9c0-1 .8-1.7 1.7-1.7h40.2c1 0 1.7.8 1.7 1.7v27.8c0 1-.7 1.8-1.7 1.8z" fill="#3f51b5"/><path d="m52.4 56.6v3.8c0 1-.8 1.7-1.7 1.7h-40.2c-1 0-1.7-.8-1.7-1.7v-27.9c0-1 .8-1.7 1.7-1.7h3.8v24c0 1 .8 1.7 1.7 1.7h36.4z" fill="#2f46a8"/><path d="m56.4 26.6v-5.4c0-2.4-1.9-4.3-4.3-4.3h-43.1c-2.4 0-4.3 1.9-4.3 4.3v5.4z" fill="#ff9801"/><path d="m56.4 23.6v3h-51.6v-5.4c0-2.4 1.9-4.3 4.2-4.3-.1.4-.2.8-.2 1.3v3.7c0 .9.8 1.7 1.7 1.7z" fill="#e58007"/><g fill="#ff9801"><g><path d="m18.3 36.1v3c0 .7-.6 1.3-1.3 1.3h-3.4c-.7 0-1.3-.6-1.3-1.3v-3c0-.7.6-1.3 1.3-1.3h3.4c.7 0 1.3.6 1.3 1.3z"/><path d="m28.5 36.1v3c0 .7-.6 1.3-1.3 1.3h-3.4c-.7 0-1.3-.6-1.3-1.3v-3c0-.7.6-1.3 1.3-1.3h3.4c.7 0 1.3.6 1.3 1.3z"/><path d="m38.8 36.1v3c0 .7-.6 1.3-1.3 1.3h-3.5c-.7 0-1.3-.6-1.3-1.3v-3c0-.7.6-1.3 1.3-1.3h3.4c.8 0 1.4.6 1.4 1.3z"/><path d="m49 36.1v3c0 .7-.6 1.3-1.3 1.3h-3.4c-.7 0-1.3-.6-1.3-1.3v-3c0-.7.6-1.3 1.3-1.3h3.4c.7 0 1.3.6 1.3 1.3z"/></g><g><path d="m18.3 45v3c0 .7-.6 1.3-1.3 1.3h-3.4c-.7 0-1.3-.6-1.3-1.3v-3c0-.7.6-1.3 1.3-1.3h3.4c.7 0 1.3.5 1.3 1.3z"/><path d="m28.5 45v3c0 .7-.6 1.3-1.3 1.3h-3.4c-.7 0-1.3-.6-1.3-1.3v-3c0-.7.6-1.3 1.3-1.3h3.4c.7 0 1.3.5 1.3 1.3z"/><path d="m38.8 45v3c0 .7-.6 1.3-1.3 1.3h-3.5c-.7 0-1.3-.6-1.3-1.3v-3c0-.7.6-1.3 1.3-1.3h3.4c.8 0 1.4.5 1.4 1.3z"/></g><g><path d="m18.3 53.8v3c0 .7-.6 1.3-1.3 1.3h-3.4c-.7 0-1.3-.6-1.3-1.3v-3c0-.7.6-1.3 1.3-1.3h3.4c.7 0 1.3.6 1.3 1.3z"/><path d="m28.5 53.8v3c0 .7-.6 1.3-1.3 1.3h-3.4c-.7 0-1.3-.6-1.3-1.3v-3c0-.7.6-1.3 1.3-1.3h3.4c.7 0 1.3.6 1.3 1.3z"/><path d="m38.8 53.8v3c0 .7-.6 1.3-1.3 1.3h-3.5c-.7 0-1.3-.6-1.3-1.3v-3c0-.7.6-1.3 1.3-1.3h3.4c.8 0 1.4.6 1.4 1.3z"/></g></g><g fill="#e58007"><g><path d="m18.2 38.7v.4c0 .7-.6 1.3-1.3 1.3h-3.4c-.7 0-1.3-.6-1.3-1.3v-3c0-.7.6-1.3 1.3-1.3h.4v2.6c0 .7.6 1.3 1.3 1.3z"/><path d="m28.5 38.7v.4c0 .7-.6 1.3-1.3 1.3h-3.4c-.7 0-1.3-.6-1.3-1.3v-3c0-.7.6-1.3 1.3-1.3h.4v2.6c0 .7.6 1.3 1.3 1.3z"/><path d="m38.8 38.7v.4c0 .7-.6 1.3-1.3 1.3h-3.5c-.7 0-1.3-.6-1.3-1.3v-3c0-.7.6-1.3 1.3-1.3h.4v2.6c0 .7.6 1.3 1.3 1.3z"/><path d="m49 38.7v.4c0 .7-.6 1.3-1.3 1.3h-3.4c-.7 0-1.3-.6-1.3-1.3v-3c0-.7.6-1.3 1.3-1.3h.4v2.6c0 .7.6 1.3 1.3 1.3z"/></g><g><path d="m18.2 47.6v.4c0 .7-.6 1.3-1.3 1.3h-3.4c-.7 0-1.3-.6-1.3-1.3v-3c0-.7.6-1.3 1.3-1.3h.4v2.6c0 .7.6 1.3 1.3 1.3z"/><path d="m28.5 47.6v.4c0 .7-.6 1.3-1.3 1.3h-3.4c-.7 0-1.3-.6-1.3-1.3v-3c0-.7.6-1.3 1.3-1.3h.4v2.6c0 .7.6 1.3 1.3 1.3z"/><path d="m38.8 47.6v.4c0 .7-.6 1.3-1.3 1.3h-3.5c-.7 0-1.3-.6-1.3-1.3v-3c0-.7.6-1.3 1.3-1.3h.4v2.6c0 .7.6 1.3 1.3 1.3z"/></g><g><path d="m18.2 56.4v.4c0 .7-.6 1.3-1.3 1.3h-3.4c-.7 0-1.3-.6-1.3-1.3v-3c0-.7.6-1.3 1.3-1.3h.4v2.6c0 .7.6 1.3 1.3 1.3z"/><path d="m28.5 56.4v.4c0 .7-.6 1.3-1.3 1.3h-3.4c-.7 0-1.3-.6-1.3-1.3v-3c0-.7.6-1.3 1.3-1.3h.4v2.6c0 .7.6 1.3 1.3 1.3z"/><path d="m38.8 56.4v.4c0 .7-.6 1.3-1.3 1.3h-3.5c-.7 0-1.3-.6-1.3-1.3v-3c0-.7.6-1.3 1.3-1.3h.4v2.6c0 .7.6 1.3 1.3 1.3z"/></g></g><g fill="none" stroke="#000" stroke-linecap="round" stroke-linejoin="round" stroke-miterlimit="10"><g><path d="m18.3 36.1v3c0 .7-.6 1.3-1.3 1.3h-3.4c-.7 0-1.3-.6-1.3-1.3v-3c0-.7.6-1.3 1.3-1.3h3.4c.7 0 1.3.6 1.3 1.3z"/><path d="m28.5 36.1v3c0 .7-.6 1.3-1.3 1.3h-3.4c-.7 0-1.3-.6-1.3-1.3v-3c0-.7.6-1.3 1.3-1.3h3.4c.7 0 1.3.6 1.3 1.3z"/><path d="m38.8 36.1v3c0 .7-.6 1.3-1.3 1.3h-3.5c-.7 0-1.3-.6-1.3-1.3v-3c0-.7.6-1.3 1.3-1.3h3.4c.8 0 1.4.6 1.4 1.3z"/><path d="m49 36.1v3c0 .7-.6 1.3-1.3 1.3h-3.4c-.7 0-1.3-.6-1.3-1.3v-3c0-.7.6-1.3 1.3-1.3h3.4c.7 0 1.3.6 1.3 1.3z"/></g><g><path d="m18.3 45v3c0 .7-.6 1.3-1.3 1.3h-3.4c-.7 0-1.3-.6-1.3-1.3v-3c0-.7.6-1.3 1.3-1.3h3.4c.7 0 1.3.5 1.3 1.3z"/><path d="m28.5 45v3c0 .7-.6 1.3-1.3 1.3h-3.4c-.7 0-1.3-.6-1.3-1.3v-3c0-.7.6-1.3 1.3-1.3h3.4c.7 0 1.3.5 1.3 1.3z"/><path d="m38.8 45v3c0 .7-.6 1.3-1.3 1.3h-3.5c-.7 0-1.3-.6-1.3-1.3v-3c0-.7.6-1.3 1.3-1.3h3.4c.8 0 1.4.5 1.4 1.3z"/></g><g><path d="m18.3 53.8v3c0 .7-.6 1.3-1.3 1.3h-3.4c-.7 0-1.3-.6-1.3-1.3v-3c0-.7.6-1.3 1.3-1.3h3.4c.7 0 1.3.6 1.3 1.3z"/><path d="m28.5 53.8v3c0 .7-.6 1.3-1.3 1.3h-3.4c-.7 0-1.3-.6-1.3-1.3v-3c0-.7.6-1.3 1.3-1.3h3.4c.7 0 1.3.6 1.3 1.3z"/><path d="m38.8 53.8v3c0 .7-.6 1.3-1.3 1.3h-3.5c-.7 0-1.3-.6-1.3-1.3v-3c0-.7.6-1.3 1.3-1.3h3.4c.8 0 1.4.6 1.4 1.3z"/></g></g><path d="m50.7 62.1h-40.2c-1 0-1.7-.8-1.7-1.7v-27.9c0-1 .8-1.7 1.7-1.7h40.2c1 0 1.7.8 1.7 1.7v27.8c0 1-.7 1.8-1.7 1.8z" fill="none" stroke="#000" stroke-linecap="round" stroke-linejoin="round" stroke-miterlimit="10"/><path d="m56.4 26.6v35.2c0 2.4-1.9 4.3-4.3 4.3h-43.1c-2.4 0-4.3-1.9-4.3-4.3v-35.2z" fill="none" stroke="#000" stroke-linecap="round" stroke-linejoin="round" stroke-miterlimit="10"/><path d="m56.4 26.6v-5.4c0-2.4-1.9-4.3-4.3-4.3h-43.1c-2.4 0-4.3 1.9-4.3 4.3v5.4z" fill="none" stroke="#000" stroke-linecap="round" stroke-linejoin="round" stroke-miterlimit="10"/><g fill="#a0522d"><path d="m17.5 14.1v5.7c0 1.2-1 2.2-2.2 2.2-1.2 0-2.2-1-2.2-2.2v-5.7c0-1.2 1-2.2 2.2-2.2 1.2 0 2.2 1 2.2 2.2z"/><path d="m27.7 14.1v5.7c0 1.2-1 2.2-2.2 2.2-1.2 0-2.2-1-2.2-2.2v-5.7c0-1.2 1-2.2 2.2-2.2 1.2 0 2.2 1 2.2 2.2z"/><path d="m37.8 14.1v5.7c0 1.2-1 2.2-2.2 2.2-1.2 0-2.2-1-2.2-2.2v-5.7c0-1.2 1-2.2 2.2-2.2 1.3 0 2.2 1 2.2 2.2z"/><path d="m48 14.1v5.7c0 1.2-1 2.2-2.2 2.2-1.2 0-2.2-1-2.2-2.2v-5.7c0-1.2 1-2.2 2.2-2.2 1.3 0 2.2 1 2.2 2.2z"/></g><g fill="#964424"><path d="m17.4 20.3c-.3.9-1.1 1.6-2.1 1.6-.6 0-1.1-.2-1.5-.6s-.6-.9-.6-1.5v-5.7c0-1 .7-1.8 1.6-2.1 0 .2-.1.4-.1.6v5.7c0 .6.2 1.1.6 1.5s.9.6 1.5.6c.2 0 .4 0 .6-.1z"/><path d="m27.6 20.3c-.3.9-1.1 1.6-2.1 1.6-.6 0-1.1-.2-1.5-.6s-.6-.9-.6-1.5v-5.7c0-1 .7-1.8 1.6-2.1 0 .2-.1.4-.1.6v5.7c0 .6.2 1.1.6 1.5s.9.6 1.5.6c.2 0 .4 0 .6-.1z"/><path d="m37.8 20.3c-.2.9-1.1 1.6-2.1 1.6-.6 0-1.1-.2-1.5-.6s-.6-.9-.6-1.5v-5.7c0-1 .7-1.8 1.6-2.1 0 .2-.1.4-.1.6v5.7c0 .6.2 1.1.6 1.5s.9.6 1.5.6c.2 0 .4 0 .6-.1z"/><path d="m48 20.3c-.2.9-1.1 1.6-2.1 1.6-.6 0-1.1-.2-1.5-.6s-.6-.9-.6-1.5v-5.7c0-1 .7-1.8 1.6-2.1-.1.2-.1.4-.1.6v5.7c0 .6.2 1.1.6 1.5s.9.6 1.5.6c.2 0 .4 0 .6-.1z"/></g><g fill="none" stroke="#000" stroke-linecap="round" stroke-linejoin="round" stroke-miterlimit="10"><path d="m17.5 14.1v5.7c0 1.2-1 2.2-2.2 2.2-1.2 0-2.2-1-2.2-2.2v-5.7c0-1.2 1-2.2 2.2-2.2 1.2 0 2.2 1 2.2 2.2z"/><path d="m27.7 14.1v5.7c0 1.2-1 2.2-2.2 2.2-1.2 0-2.2-1-2.2-2.2v-5.7c0-1.2 1-2.2 2.2-2.2 1.2 0 2.2 1 2.2 2.2z"/><path d="m37.8 14.1v5.7c0 1.2-1 2.2-2.2 2.2-1.2 0-2.2-1-2.2-2.2v-5.7c0-1.2 1-2.2 2.2-2.2 1.3 0 2.2 1 2.2 2.2z"/><path d="m48 14.1v5.7c0 1.2-1 2.2-2.2 2.2-1.2 0-2.2-1-2.2-2.2v-5.7c0-1.2 1-2.2 2.2-2.2 1.3 0 2.2 1 2.2 2.2z"/><path d="m63.4 15.1v5.8"/><path d="m60.5 18h5.8"/><path d="m63.4 16.6c0 .8-.7 1.5-1.5 1.5"/><path d="m61.9 18c.8 0 1.5.7 1.5 1.5"/><path d="m63.4 19.5c0-.8.7-1.5 1.5-1.5"/><path d="m64.8 18c-.8 0-1.5-.7-1.5-1.5"/><path d="m5.9 4.3v5.8"/><path d="m3 7.2h5.8"/><path d="m5.9 5.7c0 .8-.7 1.5-1.5 1.5"/><path d="m4.5 7.2c.8 0 1.5.7 1.5 1.5"/><path d="m5.9 8.6c0-.8.7-1.5 1.5-1.5"/><path d="m7.4 7.2c-.8 0-1.5-.7-1.5-1.5"/><path d="m51.8 3.9-1.4 2.4-2.4 1.3 2.4 1.4 1.4 2.4 1.3-2.4 2.4-1.4-2.4-1.3z"/></g><g><circle cx="54.8" cy="53.9" fill="#ffe0b2" r="12.2"/><circle cx="54.8" cy="53.9" fill="#ff9801" r="7.9"/><path d="m61.5 58.2c-1.4 2.2-3.9 3.6-6.7 3.6-4.4 0-7.9-3.6-7.9-8 0-3 1.6-5.6 4.1-6.9-.8 1.2-1.3 2.7-1.3 4.4 0 4.4 3.6 7.9 7.9 7.9 1.4 0 2.7-.3 3.9-1z" fill="#e58007"/><path d="m66.1 58.4c-1.8 4.5-6.2 7.7-11.3 7.7-6.7 0-12.2-5.5-12.2-12.2 0-2.9 1-5.6 2.7-7.7-.6 1.4-.9 2.9-.9 4.5 0 6.7 5.5 12.2 12.2 12.2 3.9 0 7.3-1.7 9.5-4.5z" fill="#e8bd89"/><g fill="none" stroke="#000" stroke-linecap="round" stroke-linejoin="round" stroke-miterlimit="10"><circle cx="54.8" cy="53.9" r="12.2"/><circle cx="54.8" cy="53.9" r="7.9"/><path d="m54.8 53.9c-1 0-1.9-.8-1.9-1.9 0-1 .8-1.9 1.9-1.9 1 0 1.9.8 1.9 1.9"/><path d="m54.8 53.9c1 0 1.9.8 1.9 1.9 0 1-.8 1.9-1.9 1.9-1 0-1.9-.8-1.9-1.9"/><path d="m54.8 50.2v-1.1"/><path d="m54.8 58.6v-1"/></g></g></g></svg>